<svg width="47" height="48" viewBox="0 0 47 48" fill="none" xmlns="http://www.w3.org/2000/svg">
<path fill-rule="evenodd" clip-rule="evenodd" d="M23.5 46C35.9264 46 46 35.9264 46 23.5C46 11.0736 35.9264 1 23.5 1C11.0736 1 1 11.0736 1 23.5C1 35.9264 11.0736 46 23.5 46Z" stroke="#022D57" stroke-width="2"/>
<path d="M33.6142 30.45L28.8223 26.0931C28.5958 25.8872 28.2982 25.7774 27.9922 25.7868C27.6863 25.7963 27.396 25.9243 27.1826 26.1438L24.3617 29.0448C23.6827 28.9151 22.3177 28.4896 20.9125 27.088C19.5074 25.6817 19.0818 24.3131 18.9557 23.6388L21.8544 20.8167C22.0741 20.6035 22.2023 20.3131 22.2118 20.0071C22.2212 19.7011 22.1112 19.4034 21.9051 19.177L17.5494 14.3863C17.3431 14.1592 17.0565 14.0215 16.7503 14.0023C16.4441 13.9832 16.1426 14.0841 15.9096 14.2837L13.3516 16.4775C13.1478 16.682 13.0262 16.9543 13.0098 17.2425C12.9921 17.5373 12.6549 24.5182 18.068 29.9336C22.7904 34.6548 28.7056 35.0002 30.3348 35.0002C30.5729 35.0002 30.7191 34.9931 30.758 34.9907C31.0462 34.9746 31.3183 34.8524 31.5218 34.6477L33.7144 32.0885C33.9148 31.8563 34.0165 31.555 33.9978 31.2488C33.9791 30.9427 33.8414 30.656 33.6142 30.45Z" fill="#022D57"/>
</svg>
