<svg width="47" height="47" viewBox="0 0 47 47" fill="none" xmlns="http://www.w3.org/2000/svg">
<path fill-rule="evenodd" clip-rule="evenodd" d="M23.5 46C35.9264 46 46 35.9264 46 23.5C46 11.0736 35.9264 1 23.5 1C11.0736 1 1 11.0736 1 23.5C1 35.9264 11.0736 46 23.5 46Z" stroke="#022D57" stroke-width="2"/>
<path d="M23.9618 11.5C19.3178 11.5 15.5618 15.256 15.5618 19.9C15.5618 26.2 23.9618 35.5 23.9618 35.5C23.9618 35.5 32.3618 26.2 32.3618 19.9C32.3618 15.256 28.6058 11.5 23.9618 11.5ZM23.9618 22.9C23.1661 22.9 22.4031 22.5839 21.8404 22.0213C21.2778 21.4587 20.9618 20.6957 20.9618 19.9C20.9618 19.1044 21.2778 18.3413 21.8404 17.7787C22.4031 17.2161 23.1661 16.9 23.9618 16.9C24.7574 16.9 25.5205 17.2161 26.0831 17.7787C26.6457 18.3413 26.9618 19.1044 26.9618 19.9C26.9618 20.6957 26.6457 21.4587 26.0831 22.0213C25.5205 22.5839 24.7574 22.9 23.9618 22.9Z" fill="#022D57"/>
</svg>
