<svg width="17" height="13" viewBox="0 0 17 13" fill="none" xmlns="http://www.w3.org/2000/svg">
<path d="M8.68268 7.16406L3.37018 12.4766C2.97956 12.8672 2.39362 12.8672 2.04206 12.4766L1.14362 11.6172C0.792056 11.2266 0.792056 10.6406 1.14362 10.2891L4.93268 6.53906L1.14362 2.75C0.792056 2.39844 0.792056 1.8125 1.14362 1.42188L2.04206 0.523438C2.39362 0.171875 2.97956 0.171875 3.37018 0.523438L8.68268 5.83594C9.03424 6.22656 9.03424 6.8125 8.68268 7.16406ZM16.1827 5.83594C16.5342 6.22656 16.5342 6.8125 16.1827 7.16406L10.8702 12.4766C10.5186 12.8672 9.89362 12.8672 9.54206 12.4766L8.64362 11.6172C8.29206 11.2266 8.29206 10.6406 8.64362 10.2891L12.4327 6.5L8.64362 2.75C8.29206 2.39844 8.29206 1.77344 8.64362 1.42188L9.54206 0.523438C9.89362 0.171875 10.4796 0.171875 10.8702 0.523438L16.1827 5.83594Z" fill="white"/>
</svg>
