<svg width="47" height="48" viewBox="0 0 47 48" fill="none" xmlns="http://www.w3.org/2000/svg">
<g id="ICON">
<path id="Oval" fill-rule="evenodd" clip-rule="evenodd" d="M23.5 46.1699C35.9264 46.1699 46 36.0963 46 23.6699C46 11.2435 35.9264 1.16992 23.5 1.16992C11.0736 1.16992 1 11.2435 1 23.6699C1 36.0963 11.0736 46.1699 23.5 46.1699Z" stroke="white" stroke-width="2"/>
<path id="Vector" d="M33.6142 29.2087L28.8223 24.8519C28.5958 24.646 28.2982 24.5362 27.9922 24.5456C27.6863 24.5551 27.396 24.6831 27.1826 24.9025L24.3617 27.8036C23.6827 27.6739 22.3177 27.2484 20.9125 25.8468C19.5074 24.4405 19.0818 23.0719 18.9557 22.3976L21.8544 19.5755C22.0741 19.3623 22.2023 19.0719 22.2118 18.7659C22.2212 18.4599 22.1112 18.1621 21.9051 17.9358L17.5494 13.1451C17.3431 12.918 17.0565 12.7802 16.7503 12.7611C16.4441 12.7419 16.1426 12.8429 15.9096 13.0425L13.3516 15.2363C13.1478 15.4408 13.0262 15.7131 13.0098 16.0013C12.9921 16.296 12.6549 23.277 18.068 28.6924C22.7904 33.4136 28.7056 33.759 30.3348 33.759C30.5729 33.759 30.7191 33.7519 30.758 33.7495C31.0462 33.7334 31.3183 33.6112 31.5218 33.4065L33.7144 30.8473C33.9148 30.6151 34.0165 30.3138 33.9978 30.0076C33.9791 29.7015 33.8414 29.4148 33.6142 29.2087Z" fill="white"/>
</g>
</svg>
