<svg width="45" height="47" viewBox="0 0 45 47" fill="none" xmlns="http://www.w3.org/2000/svg">
<path fill-rule="evenodd" clip-rule="evenodd" d="M22.5 45C34.9264 45 45 34.9264 45 22.5C45 10.0736 34.9264 0 22.5 0C10.0736 0 0 10.0736 0 22.5C0 34.9264 10.0736 45 22.5 45Z" fill="white"/>
<path d="M32.2183 29.8866L32.2177 29.8861L27.4259 25.5292C27.3125 25.4262 27.1636 25.3712 27.0104 25.376C26.8573 25.3807 26.712 25.4448 26.6052 25.5546L26.6052 25.5547L23.7843 28.4557L23.563 28.6833L23.2512 28.6238C22.4791 28.4763 20.9998 28.0051 19.4963 26.5053L19.4956 26.5046C17.9921 24.9999 17.5203 23.5165 17.3763 22.7472L17.3183 22.4368L17.5445 22.2165L20.4432 19.3944L20.4439 19.3937C20.5538 19.2871 20.6179 19.1419 20.6226 18.9889C20.6274 18.8359 20.5724 18.687 20.4693 18.5738L20.469 18.5735L16.1133 13.7828L16.113 13.7826C16.0099 13.669 15.8666 13.6001 15.7135 13.5906C15.5605 13.581 15.4098 13.6314 15.2933 13.7311C15.2933 13.7312 15.2932 13.7312 15.2932 13.7313C15.2932 13.7313 15.2932 13.7313 15.2932 13.7313L12.7559 15.9073C12.662 16.0079 12.6061 16.1383 12.5982 16.276L12.5981 16.2778C12.5831 16.5287 12.2573 23.2869 17.4848 28.5168C17.4848 28.5169 17.4849 28.5169 17.4849 28.517M32.2183 29.8866L29.758 33.9907C29.7191 33.9931 29.5729 34.0002 29.3348 34.0002C27.7056 34.0002 21.7904 33.6548 17.068 28.9336L17.4849 28.517M32.2183 29.8866C32.3315 29.9893 32.4002 30.1322 32.4095 30.2848C32.4188 30.4374 32.3681 30.5876 32.2682 30.7034L32.2668 30.705L30.0909 33.2447M32.2183 29.8866L30.0909 33.2447M17.4849 28.517C22.0424 33.0732 27.7633 33.4108 29.3348 33.4108C29.562 33.4108 29.6963 33.404 29.7223 33.4024L29.725 33.4023C29.8619 33.3946 29.9915 33.3387 30.0909 33.2447M17.4849 28.517L30.0909 33.2447" fill="#EC001B" stroke="#EC001B" stroke-width="1.17881"/>
</svg>
