<svg width="72" height="55" viewBox="0 0 72 55" fill="none" xmlns="http://www.w3.org/2000/svg">
<g id="youtube">
<g id="Group 3">
<mask id="mask0_241_12" style="mask-type:luminance" maskUnits="userSpaceOnUse" x="0" y="0" width="72" height="55">
<path id="Clip 2" fill-rule="evenodd" clip-rule="evenodd" d="M0 0H71.8863V54.9087H0V0Z" fill="white"/>
</mask>
<g mask="url(#mask0_241_12)">
<path id="Fill 1" fill-rule="evenodd" clip-rule="evenodd" d="M71.1426 11.8571C71.1426 11.8571 70.3989 6.49014 68.2916 4.11878C65.5645 0.998483 62.4656 0.998483 61.1022 0.873638C51.0618 0.124846 35.939 0 35.939 0C35.939 0 20.8163 0.124846 10.7759 0.873638C9.41243 0.998483 6.31351 1.12333 3.58643 4.11878C1.35517 6.49014 0.7355 11.8571 0.7355 11.8571C0.7355 11.8571 -0.00830078 18.2225 -0.00830078 24.5878V30.454C-0.00830078 36.8195 0.7355 43.0601 0.7355 43.0601C0.7355 43.0601 1.47916 48.4269 3.58643 50.7984C6.31351 53.9187 9.90825 53.7938 11.5197 54.1682C17.2216 54.7923 35.939 54.9171 35.939 54.9171C35.939 54.9171 51.0618 54.9171 61.1022 54.0434C62.4656 53.9187 65.5645 53.7938 68.2916 50.7984C70.3989 48.4269 71.1426 43.0601 71.1426 43.0601C71.1426 43.0601 71.8864 36.6946 71.8864 30.454V24.5878C71.8864 18.2225 71.1426 11.8571 71.1426 11.8571Z" fill="#C6362D"/>
</g>
</g>
<path id="Fill 4" fill-rule="evenodd" clip-rule="evenodd" d="M26.9521 14.9171V41.9171L50.9171 28.7281L26.9521 14.9171Z" fill="#FFFFFE"/>
</g>
</svg>
